<mxfile host="app.diagrams.net" modified="2023-12-19T01:42:41.042Z" agent="Mozilla/5.0 (Windows NT 10.0; Win64; x64) AppleWebKit/537.36 (KHTML, like Gecko) Chrome/120.0.0.0 Safari/537.36 Edg/120.0.0.0" etag="1am3M3VEmH8YuKg_La04" version="22.1.11" type="github">
  <diagram name="第 1 页" id="I7jw70AARIxvvJMR-Udy">
    <mxGraphModel dx="2099" dy="1058" grid="0" gridSize="10" guides="1" tooltips="1" connect="1" arrows="1" fold="1" page="0" pageScale="1" pageWidth="827" pageHeight="1169" math="0" shadow="0">
      <root>
        <mxCell id="0" />
        <mxCell id="1" parent="0" />
        <mxCell id="EkgXGQzeVt3Fj3ODEuRZ-1" value="" style="ellipse;html=1;shape=startState;fillColor=#000000;strokeColor=#000000;" vertex="1" parent="1">
          <mxGeometry x="-98" y="124" width="30" height="30" as="geometry" />
        </mxCell>
        <mxCell id="EkgXGQzeVt3Fj3ODEuRZ-2" value="" style="edgeStyle=orthogonalEdgeStyle;html=1;verticalAlign=bottom;endArrow=open;endSize=8;strokeColor=#000000;rounded=0;" edge="1" source="EkgXGQzeVt3Fj3ODEuRZ-1" parent="1">
          <mxGeometry relative="1" as="geometry">
            <mxPoint x="-83" y="214" as="targetPoint" />
          </mxGeometry>
        </mxCell>
        <mxCell id="EkgXGQzeVt3Fj3ODEuRZ-13" style="edgeStyle=orthogonalEdgeStyle;rounded=0;orthogonalLoop=1;jettySize=auto;html=1;" edge="1" parent="1" source="EkgXGQzeVt3Fj3ODEuRZ-4" target="EkgXGQzeVt3Fj3ODEuRZ-11">
          <mxGeometry relative="1" as="geometry" />
        </mxCell>
        <mxCell id="EkgXGQzeVt3Fj3ODEuRZ-4" value="进入帖子展示页面" style="rounded=1;whiteSpace=wrap;html=1;arcSize=40;" vertex="1" parent="1">
          <mxGeometry x="-143" y="215" width="120" height="40" as="geometry" />
        </mxCell>
        <mxCell id="EkgXGQzeVt3Fj3ODEuRZ-11" value="用户点赞" style="rounded=1;whiteSpace=wrap;html=1;arcSize=40;" vertex="1" parent="1">
          <mxGeometry x="-143" y="310" width="120" height="40" as="geometry" />
        </mxCell>
        <mxCell id="EkgXGQzeVt3Fj3ODEuRZ-12" value="" style="edgeStyle=orthogonalEdgeStyle;html=1;verticalAlign=bottom;endArrow=open;endSize=8;strokeColor=#000000;rounded=0;" edge="1" source="EkgXGQzeVt3Fj3ODEuRZ-11" parent="1">
          <mxGeometry relative="1" as="geometry">
            <mxPoint x="-83" y="410" as="targetPoint" />
          </mxGeometry>
        </mxCell>
        <mxCell id="EkgXGQzeVt3Fj3ODEuRZ-18" style="edgeStyle=orthogonalEdgeStyle;rounded=0;orthogonalLoop=1;jettySize=auto;html=1;" edge="1" parent="1" source="EkgXGQzeVt3Fj3ODEuRZ-14" target="EkgXGQzeVt3Fj3ODEuRZ-17">
          <mxGeometry relative="1" as="geometry" />
        </mxCell>
        <mxCell id="EkgXGQzeVt3Fj3ODEuRZ-21" value="是" style="edgeLabel;html=1;align=center;verticalAlign=middle;resizable=0;points=[];" vertex="1" connectable="0" parent="EkgXGQzeVt3Fj3ODEuRZ-18">
          <mxGeometry x="-0.5354" y="-3" relative="1" as="geometry">
            <mxPoint as="offset" />
          </mxGeometry>
        </mxCell>
        <mxCell id="EkgXGQzeVt3Fj3ODEuRZ-20" style="edgeStyle=orthogonalEdgeStyle;rounded=0;orthogonalLoop=1;jettySize=auto;html=1;" edge="1" parent="1" source="EkgXGQzeVt3Fj3ODEuRZ-14">
          <mxGeometry relative="1" as="geometry">
            <mxPoint x="62.02857142857147" y="525.0142857142857" as="targetPoint" />
          </mxGeometry>
        </mxCell>
        <mxCell id="EkgXGQzeVt3Fj3ODEuRZ-22" value="否" style="edgeLabel;html=1;align=center;verticalAlign=middle;resizable=0;points=[];" vertex="1" connectable="0" parent="EkgXGQzeVt3Fj3ODEuRZ-20">
          <mxGeometry x="-0.2958" y="3" relative="1" as="geometry">
            <mxPoint as="offset" />
          </mxGeometry>
        </mxCell>
        <mxCell id="EkgXGQzeVt3Fj3ODEuRZ-14" value="用户是否登录" style="rhombus;whiteSpace=wrap;html=1;" vertex="1" parent="1">
          <mxGeometry x="-126" y="410" width="80" height="40" as="geometry" />
        </mxCell>
        <mxCell id="EkgXGQzeVt3Fj3ODEuRZ-26" style="edgeStyle=orthogonalEdgeStyle;rounded=0;orthogonalLoop=1;jettySize=auto;html=1;" edge="1" parent="1" source="EkgXGQzeVt3Fj3ODEuRZ-17">
          <mxGeometry relative="1" as="geometry">
            <mxPoint x="-320.9655172413791" y="635.0172413793105" as="targetPoint" />
          </mxGeometry>
        </mxCell>
        <mxCell id="EkgXGQzeVt3Fj3ODEuRZ-27" value="否" style="edgeLabel;html=1;align=center;verticalAlign=middle;resizable=0;points=[];" vertex="1" connectable="0" parent="EkgXGQzeVt3Fj3ODEuRZ-26">
          <mxGeometry x="0.189" y="1" relative="1" as="geometry">
            <mxPoint as="offset" />
          </mxGeometry>
        </mxCell>
        <mxCell id="EkgXGQzeVt3Fj3ODEuRZ-35" style="edgeStyle=orthogonalEdgeStyle;rounded=0;orthogonalLoop=1;jettySize=auto;html=1;" edge="1" parent="1" source="EkgXGQzeVt3Fj3ODEuRZ-17">
          <mxGeometry relative="1" as="geometry">
            <mxPoint x="-126.9655172413793" y="579.0172413793102" as="targetPoint" />
          </mxGeometry>
        </mxCell>
        <mxCell id="EkgXGQzeVt3Fj3ODEuRZ-17" value="用户是否已经点赞" style="rhombus;whiteSpace=wrap;html=1;" vertex="1" parent="1">
          <mxGeometry x="-266" y="515" width="80" height="40" as="geometry" />
        </mxCell>
        <mxCell id="EkgXGQzeVt3Fj3ODEuRZ-23" value="点赞成功" style="rounded=1;whiteSpace=wrap;html=1;arcSize=40;" vertex="1" parent="1">
          <mxGeometry x="-376" y="635" width="120" height="40" as="geometry" />
        </mxCell>
        <mxCell id="EkgXGQzeVt3Fj3ODEuRZ-24" value="" style="edgeStyle=orthogonalEdgeStyle;html=1;verticalAlign=bottom;endArrow=open;endSize=8;strokeColor=#000000;rounded=0;" edge="1" source="EkgXGQzeVt3Fj3ODEuRZ-23" parent="1">
          <mxGeometry relative="1" as="geometry">
            <mxPoint x="-125" y="655" as="targetPoint" />
          </mxGeometry>
        </mxCell>
        <mxCell id="EkgXGQzeVt3Fj3ODEuRZ-36" value="显示不能重复点赞" style="rounded=1;whiteSpace=wrap;html=1;arcSize=40;" vertex="1" parent="1">
          <mxGeometry x="-188" y="578" width="120" height="40" as="geometry" />
        </mxCell>
        <mxCell id="EkgXGQzeVt3Fj3ODEuRZ-37" value="" style="edgeStyle=orthogonalEdgeStyle;html=1;verticalAlign=bottom;endArrow=open;endSize=8;strokeColor=#000000;rounded=0;entryX=0.516;entryY=0.195;entryDx=0;entryDy=0;entryPerimeter=0;" edge="1" source="EkgXGQzeVt3Fj3ODEuRZ-36" parent="1" target="EkgXGQzeVt3Fj3ODEuRZ-38">
          <mxGeometry relative="1" as="geometry">
            <mxPoint x="-128" y="811" as="targetPoint" />
          </mxGeometry>
        </mxCell>
        <mxCell id="EkgXGQzeVt3Fj3ODEuRZ-38" value="" style="ellipse;html=1;shape=endState;fillColor=#000000;strokeColor=none;" vertex="1" parent="1">
          <mxGeometry x="-143" y="955" width="30" height="30" as="geometry" />
        </mxCell>
        <mxCell id="EkgXGQzeVt3Fj3ODEuRZ-49" style="edgeStyle=orthogonalEdgeStyle;rounded=0;orthogonalLoop=1;jettySize=auto;html=1;exitX=1;exitY=0.5;exitDx=0;exitDy=0;" edge="1" parent="1" source="EkgXGQzeVt3Fj3ODEuRZ-39">
          <mxGeometry relative="1" as="geometry">
            <mxPoint x="112" y="639" as="sourcePoint" />
            <mxPoint x="126" y="544" as="targetPoint" />
            <Array as="points">
              <mxPoint x="177" y="639" />
              <mxPoint x="177" y="544" />
            </Array>
          </mxGeometry>
        </mxCell>
        <mxCell id="EkgXGQzeVt3Fj3ODEuRZ-51" value="登陆失败" style="edgeLabel;html=1;align=center;verticalAlign=middle;resizable=0;points=[];" vertex="1" connectable="0" parent="EkgXGQzeVt3Fj3ODEuRZ-49">
          <mxGeometry x="0.1287" y="-1" relative="1" as="geometry">
            <mxPoint as="offset" />
          </mxGeometry>
        </mxCell>
        <mxCell id="EkgXGQzeVt3Fj3ODEuRZ-53" style="edgeStyle=orthogonalEdgeStyle;rounded=0;orthogonalLoop=1;jettySize=auto;html=1;" edge="1" parent="1" source="EkgXGQzeVt3Fj3ODEuRZ-39">
          <mxGeometry relative="1" as="geometry">
            <mxPoint x="65" y="742" as="targetPoint" />
          </mxGeometry>
        </mxCell>
        <mxCell id="EkgXGQzeVt3Fj3ODEuRZ-54" value="登陆成功" style="edgeLabel;html=1;align=center;verticalAlign=middle;resizable=0;points=[];" vertex="1" connectable="0" parent="EkgXGQzeVt3Fj3ODEuRZ-53">
          <mxGeometry x="-0.2554" y="3" relative="1" as="geometry">
            <mxPoint as="offset" />
          </mxGeometry>
        </mxCell>
        <mxCell id="EkgXGQzeVt3Fj3ODEuRZ-39" value="用户是否登录成功" style="rhombus;whiteSpace=wrap;html=1;" vertex="1" parent="1">
          <mxGeometry x="25" y="620" width="80" height="40" as="geometry" />
        </mxCell>
        <mxCell id="EkgXGQzeVt3Fj3ODEuRZ-40" value="用户登录" style="rounded=1;whiteSpace=wrap;html=1;arcSize=40;" vertex="1" parent="1">
          <mxGeometry x="5" y="523" width="120" height="40" as="geometry" />
        </mxCell>
        <mxCell id="EkgXGQzeVt3Fj3ODEuRZ-41" value="" style="edgeStyle=orthogonalEdgeStyle;html=1;verticalAlign=bottom;endArrow=open;endSize=8;rounded=0;" edge="1" source="EkgXGQzeVt3Fj3ODEuRZ-40" parent="1">
          <mxGeometry relative="1" as="geometry">
            <mxPoint x="65" y="623" as="targetPoint" />
          </mxGeometry>
        </mxCell>
        <mxCell id="EkgXGQzeVt3Fj3ODEuRZ-55" style="edgeStyle=orthogonalEdgeStyle;rounded=0;orthogonalLoop=1;jettySize=auto;html=1;" edge="1" parent="1" source="EkgXGQzeVt3Fj3ODEuRZ-58">
          <mxGeometry relative="1" as="geometry">
            <mxPoint x="-30.965517241379075" y="861.0172413793105" as="targetPoint" />
          </mxGeometry>
        </mxCell>
        <mxCell id="EkgXGQzeVt3Fj3ODEuRZ-56" value="否" style="edgeLabel;html=1;align=center;verticalAlign=middle;resizable=0;points=[];" vertex="1" connectable="0" parent="EkgXGQzeVt3Fj3ODEuRZ-55">
          <mxGeometry x="0.189" y="1" relative="1" as="geometry">
            <mxPoint as="offset" />
          </mxGeometry>
        </mxCell>
        <mxCell id="EkgXGQzeVt3Fj3ODEuRZ-57" style="edgeStyle=orthogonalEdgeStyle;rounded=0;orthogonalLoop=1;jettySize=auto;html=1;entryX=0.75;entryY=0;entryDx=0;entryDy=0;" edge="1" parent="1" source="EkgXGQzeVt3Fj3ODEuRZ-58" target="EkgXGQzeVt3Fj3ODEuRZ-61">
          <mxGeometry relative="1" as="geometry">
            <mxPoint x="163.0344827586207" y="805.0172413793102" as="targetPoint" />
          </mxGeometry>
        </mxCell>
        <mxCell id="EkgXGQzeVt3Fj3ODEuRZ-62" value="是" style="edgeLabel;html=1;align=center;verticalAlign=middle;resizable=0;points=[];" vertex="1" connectable="0" parent="EkgXGQzeVt3Fj3ODEuRZ-57">
          <mxGeometry x="0.2525" relative="1" as="geometry">
            <mxPoint as="offset" />
          </mxGeometry>
        </mxCell>
        <mxCell id="EkgXGQzeVt3Fj3ODEuRZ-58" value="用户是否已经点赞" style="rhombus;whiteSpace=wrap;html=1;" vertex="1" parent="1">
          <mxGeometry x="24" y="741" width="80" height="40" as="geometry" />
        </mxCell>
        <mxCell id="EkgXGQzeVt3Fj3ODEuRZ-59" value="点赞成功" style="rounded=1;whiteSpace=wrap;html=1;arcSize=40;" vertex="1" parent="1">
          <mxGeometry x="-84" y="861" width="120" height="40" as="geometry" />
        </mxCell>
        <mxCell id="EkgXGQzeVt3Fj3ODEuRZ-61" value="显示不能重复点赞" style="rounded=1;whiteSpace=wrap;html=1;arcSize=40;" vertex="1" parent="1">
          <mxGeometry x="94" y="861" width="120" height="40" as="geometry" />
        </mxCell>
        <mxCell id="EkgXGQzeVt3Fj3ODEuRZ-70" value="" style="endArrow=none;html=1;rounded=0;exitX=0.473;exitY=0.955;exitDx=0;exitDy=0;exitPerimeter=0;" edge="1" parent="1">
          <mxGeometry width="50" height="50" relative="1" as="geometry">
            <mxPoint x="-25.999999999999773" y="901" as="sourcePoint" />
            <mxPoint x="-28" y="968" as="targetPoint" />
          </mxGeometry>
        </mxCell>
        <mxCell id="EkgXGQzeVt3Fj3ODEuRZ-71" value="" style="endArrow=none;html=1;rounded=0;exitX=0.473;exitY=0.955;exitDx=0;exitDy=0;exitPerimeter=0;" edge="1" parent="1">
          <mxGeometry width="50" height="50" relative="1" as="geometry">
            <mxPoint x="159.24" y="901" as="sourcePoint" />
            <mxPoint x="158" y="970" as="targetPoint" />
          </mxGeometry>
        </mxCell>
        <mxCell id="EkgXGQzeVt3Fj3ODEuRZ-72" value="" style="endArrow=none;html=1;rounded=0;entryX=1;entryY=0.5;entryDx=0;entryDy=0;" edge="1" parent="1" target="EkgXGQzeVt3Fj3ODEuRZ-38">
          <mxGeometry width="50" height="50" relative="1" as="geometry">
            <mxPoint x="159" y="970" as="sourcePoint" />
            <mxPoint x="168" y="961.2" as="targetPoint" />
          </mxGeometry>
        </mxCell>
      </root>
    </mxGraphModel>
  </diagram>
</mxfile>
